<svg version="1.1" xmlns="http://www.w3.org/2000/svg" xmlns:xlink="http://www.w3.org/1999/xlink" viewBox="0 0 172 172"><defs><linearGradient x1="86" y1="24.44192" x2="86" y2="147.55808" gradientUnits="userSpaceOnUse" id="color-1"><stop offset="0" stop-color="#ffffff"></stop><stop offset="1" stop-color="#ffffff"></stop></linearGradient></defs><g fill="none" fill-rule="nonzero" stroke="none" stroke-width="1" stroke-linecap="butt" stroke-linejoin="miter" stroke-miterlimit="10" stroke-dasharray="" stroke-dashoffset="0" font-family="none" font-weight="none" font-size="none" text-anchor="none" style="mix-blend-mode: normal"><path d="M0,172v-172h172v172z" fill="none"></path><g fill="url(#color-1)"><path d="M129.516,147.55808c-1.42693,0.00287 -2.7958,-0.56481 -3.80192,-1.57667l-39.71408,-39.71408l-39.71408,39.71408c-2.09894,2.0983 -5.50131,2.0983 -7.60025,0l-12.66708,-12.68142c-2.0983,-2.09894 -2.0983,-5.50131 0,-7.60025l39.71408,-39.69975l-39.71408,-39.71408c-2.0983,-2.09894 -2.0983,-5.50131 0,-7.60025l12.68142,-12.66708c2.09894,-2.0983 5.50131,-2.0983 7.60025,0l39.69975,39.71408l39.71408,-39.71408c2.09894,-2.0983 5.50131,-2.0983 7.60025,0l12.66708,12.68142c2.0983,2.09894 2.0983,5.50131 0,7.60025l-39.71408,39.69975l39.71408,39.71408c2.0983,2.09894 2.0983,5.50131 0,7.60025l-12.68142,12.66708c-1.00152,1.00779 -2.3632,1.57516 -3.784,1.57667z"></path></g></g></svg>