<svg version="1.1" xmlns="http://www.w3.org/2000/svg" xmlns:xlink="http://www.w3.org/1999/xlink" viewBox="0 0 172 172"><g fill="none" fill-rule="nonzero" stroke="none" stroke-width="1" stroke-linecap="butt" stroke-linejoin="miter" stroke-miterlimit="10" stroke-dasharray="" stroke-dashoffset="0" font-family="none" font-weight="none" font-size="none" text-anchor="none" style="mix-blend-mode: normal"><path d="M0,172v-172h172v172z" fill="none"></path><g fill="#cccccc"><path d="M121.83333,73.8525c0,4.42183 5.332,6.6435 8.471,3.53317l22.317,-22.10917c2.838,-2.8165 2.838,-7.40317 0,-10.21967l-22.317,-22.10917c-3.139,-3.11033 -8.471,-0.8815 -8.471,3.53317z"></path><path d="M129,35.83333c0,0 -30.83817,0 -35.83333,0c-7.91917,0 -14.33333,6.41417 -14.33333,14.33333c0,7.91917 6.41417,14.33333 14.33333,14.33333c4.99517,0 35.83333,0 35.83333,0z"></path><path d="M14.94967,53.89333c1.591,11.8465 7.81883,39.07267 32.37183,63.62567c24.553,24.553 51.772,30.78083 63.62567,32.37183c8.58567,1.85617 17.89517,-0.50167 24.56733,-7.17383c10.43467,-10.43467 -27.36233,-48.23167 -37.797,-37.797l-6.65783,6.65783l-37.797,-37.797l6.65067,-6.65783c10.43467,-10.43467 -27.36233,-48.23167 -37.797,-37.797c-6.67217,6.67217 -9.03,15.98167 -7.16667,24.56733z" opacity="0.35"></path><path d="M22.13783,29.3045l37.78983,37.78983c10.41317,-10.44183 10.41317,-27.34083 -0.0215,-37.7755c-10.42033,-10.42033 -27.3265,-10.4275 -37.76833,-0.01433z"></path><path d="M97.73183,104.8985l37.78983,37.78983c10.41317,-10.43467 10.41317,-27.34083 -0.0215,-37.7755c-10.4275,-10.42033 -27.3265,-10.4275 -37.76833,-0.01433z"></path></g></g></svg>